<?xml version="1.0" encoding="utf-8"?>
<svg id="Layer_1" x="0px" y="0px" width="435.721px" height="85.242px" viewBox="62.402 -18.766 435.721 85.242" xmlns="http://www.w3.org/2000/svg">
  <defs id="defs3605">
    <path id="text-path-0" d="M 412.209 58.922 C 420.245 19.9 473.839 16.667 488.832 40.986" style="fill: none; stroke: red; stroke-width: 2;"/>
    <path id="text-path-1" d="M 411.832 65.897 C 438.941 62.39 494.429 24.435 497.014 3.01" style="fill: none; stroke: red; stroke-width: 2;"/>
  </defs>
  <g id="g3557">
    <g transform="matrix(0.95771332,-0.29886965,0.30125068,0.95014374,0,0)" style="font-style:normal;font-weight:normal;font-size:62.58147812px;line-height:125%;font-family:Sans;letter-spacing:0px;word-spacing:0px;opacity:0.75;fill:#c1272d;fill-opacity:1;stroke:none;stroke-width:1px;stroke-linecap:butt;stroke-linejoin:miter;stroke-opacity:1" id="text3617"/>
  </g>
  <path fill="#C1272D" d="M162.586,23.788c0-5.031-1.505-9.854-4.474-14.339c-2.666-4.025-6.401-7.588-11.1-10.591  c-9.074-5.796-21-8.989-33.579-8.989c-4.202,0-8.344,0.355-12.361,1.059c-2.492-2.333-5.41-4.432-8.497-6.091  c-16.494-7.994-30.172-0.188-30.172-0.188S75.12-4.904,73.052,4.253c-5.689,5.644-8.773,12.45-8.773,19.535  c0,0.022,0.001,0.045,0.001,0.068c0,0.022-0.001,0.044-0.001,0.068c0,7.085,3.083,13.891,8.773,19.534  c2.068,9.158-10.649,19.605-10.649,19.605s13.678,7.805,30.172-0.188c3.087-1.659,6.004-3.759,8.497-6.091  c4.018,0.703,8.159,1.058,12.361,1.058c12.58,0,24.505-3.191,33.579-8.987c4.699-3.003,8.434-6.565,11.1-10.592  c2.969-4.484,4.474-9.309,4.474-14.338c0-0.023-0.001-0.045-0.001-0.068S162.586,23.81,162.586,23.788z" id="path3581"/>
  <path fill="#FFFFFF" d="M113.433-3.018c23.293,0,42.177,12.062,42.177,26.941c0,14.878-18.884,26.941-42.177,26.941  c-5.187,0-10.154-0.6-14.743-1.693c-4.664,5.61-14.924,13.411-24.891,10.89c3.242-3.482,8.045-9.366,7.017-19.058  c-5.974-4.648-9.56-10.597-9.56-17.08C71.255,9.043,90.139-3.018,113.433-3.018" id="path3583"/>
  <g id="g3585">
    <g id="g3587">
      <circle fill="#C1272D" cx="113.433" cy="24.79" r="5.603" id="circle3589"/>
    </g>
    <g id="g3591">
      <circle fill="#C1272D" cx="132.913" cy="24.79" r="5.603" id="circle3593"/>
    </g>
    <g id="g3595">
      <circle fill="#C1272D" cx="93.952" cy="24.79" r="5.602" id="circle3597"/>
    </g>
  </g>
  <g id="g3599">
    <path fill="#CCCCCC" d="M113.433,47.319c-5.187,0-10.154-0.52-14.743-1.468c-4.118,4.294-12.6,10.066-21.39,9.854   c-1.158,1.755-2.417,3.19-3.501,4.355c9.967,2.521,20.227-5.279,24.891-10.89c4.589,1.094,9.557,1.693,14.743,1.693   c23.106,0,41.87-11.871,42.169-26.585C155.303,37.032,136.539,47.319,113.433,47.319z" id="path3601"/>
  </g>
  <path d="M 192.519 35.805 L 184.898 35.805 L 176.987 3.337 L 185.456 3.337 L 190.41 26.105 L 194.55 3.337 L 202.171 3.337 L 207.237 26.73 L 212.124 3.337 L 217.982 3.337 L 209.212 35.805 L 201.591 35.805 L 197.306 16.066 L 192.519 35.805 Z M 228.833 20.397 C 229.868 20.664 230.905 20.873 231.946 21.023 C 232.981 21.173 234.022 21.248 235.071 21.248 C 236.18 21.248 237.206 21.127 238.15 20.885 C 239.088 20.651 239.907 20.259 240.605 19.709 C 241.297 19.158 241.844 18.423 242.245 17.506 C 242.647 16.588 242.848 15.444 242.848 14.076 C 242.848 12.966 242.714 11.952 242.446 11.035 C 242.178 10.117 241.781 9.333 241.252 8.682 C 240.725 8.022 240.077 7.509 239.311 7.142 C 238.545 6.775 237.653 6.591 236.633 6.591 C 235.681 6.591 234.822 6.788 234.055 7.18 C 233.297 7.58 232.632 8.11 232.058 8.769 C 231.478 9.436 230.983 10.212 230.574 11.097 C 230.166 11.974 229.826 12.891 229.559 13.851 C 229.291 14.802 229.101 15.766 228.99 16.742 C 228.871 17.719 228.811 18.636 228.811 19.496 C 228.811 19.646 228.811 19.796 228.811 19.947 C 228.811 20.097 228.819 20.247 228.833 20.397 M 249.71 13.989 C 249.71 15.324 249.517 16.508 249.13 17.543 C 248.751 18.586 248.231 19.5 247.568 20.284 C 246.906 21.069 246.144 21.736 245.28 22.287 C 244.41 22.829 243.481 23.272 242.491 23.614 C 241.509 23.964 240.494 24.215 239.445 24.365 C 238.404 24.515 237.388 24.59 236.399 24.59 C 235.149 24.59 233.915 24.49 232.694 24.29 C 231.474 24.098 230.273 23.785 229.09 23.351 C 229.268 24.586 229.559 25.763 229.96 26.881 C 230.362 27.998 230.898 28.971 231.567 29.797 C 232.237 30.632 233.059 31.295 234.033 31.787 C 235.015 32.271 236.172 32.513 237.503 32.513 C 238.389 32.513 239.233 32.363 240.036 32.062 C 240.839 31.762 241.576 31.34 242.245 30.798 C 242.915 30.256 243.503 29.609 244.008 28.858 C 244.522 28.107 244.935 27.272 245.247 26.355 L 248.907 27.882 C 248.357 29.359 247.601 30.636 246.642 31.712 C 245.682 32.788 244.596 33.681 243.384 34.391 C 242.172 35.091 240.884 35.608 239.523 35.943 C 238.162 36.284 236.811 36.456 235.472 36.456 C 233.271 36.456 231.232 36.039 229.358 35.204 C 227.491 34.369 225.881 33.201 224.526 31.699 C 223.173 30.198 222.113 28.408 221.346 26.33 C 220.573 24.252 220.186 21.974 220.186 19.496 C 220.186 17.026 220.573 14.748 221.346 12.662 C 222.113 10.584 223.173 8.794 224.526 7.292 C 225.881 5.799 227.491 4.635 229.358 3.8 C 231.232 2.965 233.271 2.549 235.472 2.549 C 236.544 2.549 237.642 2.633 238.764 2.799 C 239.88 2.965 240.967 3.233 242.022 3.6 C 243.071 3.967 244.064 4.442 245.001 5.027 C 245.939 5.603 246.753 6.316 247.445 7.167 C 248.137 8.027 248.688 9.016 249.097 10.134 C 249.506 11.26 249.71 12.546 249.71 13.989 Z M 285.777 19.609 C 285.777 21.97 285.461 24.181 284.828 26.242 C 284.189 28.304 283.266 30.097 282.061 31.624 C 280.864 33.16 279.394 34.365 277.654 35.242 C 275.921 36.127 273.949 36.568 271.74 36.568 C 270.624 36.568 269.561 36.381 268.549 36.005 C 267.538 35.63 266.607 35.1 265.759 34.416 C 264.919 33.731 264.175 32.91 263.527 31.95 C 262.888 30.999 262.386 29.931 262.021 28.746 L 258.261 35.805 L 255.003 35.805 L 255.003 -8.616 L 263.472 -8.616 L 263.472 7.217 C 264.476 5.657 265.681 4.514 267.087 3.788 C 268.501 3.053 270.052 2.686 271.74 2.686 C 273.949 2.686 275.921 3.128 277.654 4.013 C 279.394 4.889 280.864 6.087 282.061 7.605 C 283.266 9.124 284.189 10.913 284.828 12.975 C 285.461 15.036 285.777 17.247 285.777 19.609 M 277.174 19.609 C 277.174 18.783 277.137 17.906 277.062 16.98 C 276.989 16.054 276.861 15.131 276.683 14.214 C 276.498 13.297 276.241 12.415 275.913 11.573 C 275.586 10.731 275.173 9.983 274.674 9.333 C 274.177 8.69 273.574 8.177 272.867 7.793 C 272.168 7.409 271.343 7.217 270.39 7.217 C 269.519 7.217 268.746 7.418 268.069 7.818 C 267.393 8.219 266.801 8.757 266.295 9.433 C 265.781 10.109 265.351 10.876 265 11.736 C 264.651 12.603 264.369 13.497 264.152 14.414 C 263.929 15.332 263.769 16.242 263.672 17.143 C 263.569 18.035 263.516 18.858 263.516 19.609 C 263.516 20.451 263.554 21.345 263.628 22.287 C 263.71 23.222 263.84 24.152 264.018 25.078 C 264.205 26.005 264.461 26.884 264.788 27.719 C 265.116 28.554 265.532 29.296 266.038 29.947 C 266.551 30.589 267.162 31.099 267.868 31.474 C 268.582 31.85 269.423 32.037 270.39 32.037 C 271.327 32.037 272.149 31.846 272.856 31.462 C 273.57 31.077 274.177 30.56 274.674 29.91 C 275.173 29.268 275.586 28.52 275.913 27.669 C 276.241 26.818 276.498 25.929 276.683 25.003 C 276.861 24.086 276.989 23.163 277.062 22.237 C 277.137 21.311 277.174 20.435 277.174 19.609 Z M 336.02 16.855 C 336.02 19.083 335.789 21.407 335.328 23.827 C 334.859 26.246 334.201 28.604 333.353 30.898 C 332.513 33.193 331.497 35.363 330.307 37.407 C 329.124 39.451 327.804 41.225 326.345 42.726 L 323.165 40.786 C 323.65 39.81 324.092 38.712 324.493 37.495 C 324.895 36.277 325.263 34.991 325.598 33.64 C 325.933 32.288 326.227 30.902 326.479 29.484 C 326.725 28.057 326.937 26.634 327.115 25.216 C 327.294 23.805 327.424 22.434 327.506 21.098 C 327.587 19.771 327.629 18.528 327.629 17.368 C 327.629 16.709 327.614 15.995 327.584 15.228 C 327.547 14.461 327.472 13.692 327.361 12.925 C 327.257 12.158 327.098 11.419 326.881 10.709 C 326.658 10.008 326.361 9.383 325.988 8.832 C 325.609 8.281 325.14 7.839 324.582 7.505 C 324.025 7.18 323.352 7.017 322.563 7.017 C 321.797 7.017 321.142 7.246 320.599 7.705 C 320.057 8.165 319.591 8.761 319.204 9.495 C 318.825 10.221 318.52 11.044 318.289 11.961 C 318.066 12.879 317.895 13.805 317.776 14.74 C 317.664 15.666 317.586 16.551 317.542 17.393 C 317.497 18.236 317.475 18.949 317.475 19.533 L 317.475 35.805 L 309.028 35.805 L 309.028 20.685 C 309.028 20.025 309.039 19.233 309.061 18.307 C 309.076 17.381 309.054 16.408 308.995 15.391 C 308.935 14.38 308.827 13.375 308.671 12.374 C 308.515 11.373 308.263 10.475 307.912 9.683 C 307.571 8.898 307.109 8.26 306.529 7.768 C 305.941 7.267 305.204 7.017 304.319 7.017 C 303.568 7.017 302.939 7.251 302.434 7.718 C 301.92 8.185 301.493 8.791 301.15 9.533 C 300.809 10.275 300.54 11.11 300.347 12.036 C 300.154 12.962 300.012 13.889 299.923 14.815 C 299.834 15.741 299.778 16.621 299.756 17.456 C 299.741 18.291 299.733 18.983 299.733 19.533 L 299.733 35.805 L 291.242 35.805 L 291.242 3.337 L 294.5 3.337 L 297.602 10.897 C 298.308 8.277 299.418 6.229 300.927 4.752 C 302.438 3.283 304.445 2.549 306.953 2.549 C 309.207 2.549 311.078 3.074 312.565 4.126 C 314.054 5.168 315.224 6.871 316.08 9.232 C 316.564 8.206 317.099 7.28 317.687 6.454 C 318.281 5.628 318.944 4.927 319.673 4.351 C 320.403 3.767 321.209 3.321 322.094 3.012 C 322.98 2.703 323.954 2.549 325.018 2.549 C 326.989 2.549 328.674 2.908 330.072 3.625 C 331.47 4.351 332.613 5.352 333.498 6.629 C 334.384 7.897 335.026 9.408 335.428 11.16 C 335.822 12.912 336.02 14.811 336.02 16.855 Z M 366.572 25.429 C 366.572 26.856 366.389 28.12 366.025 29.221 C 365.652 30.331 365.15 31.295 364.519 32.113 C 363.886 32.922 363.135 33.606 362.265 34.165 C 361.394 34.716 360.464 35.158 359.475 35.492 C 358.478 35.834 357.437 36.08 356.351 36.23 C 355.264 36.381 354.186 36.456 353.115 36.456 C 351.679 36.456 350.41 36.352 349.31 36.143 C 348.209 35.934 347.157 35.601 346.152 35.142 C 345.148 34.682 344.147 34.09 343.151 33.364 C 342.161 32.629 341.056 31.737 339.837 30.686 L 344.769 26.167 C 345.222 27.118 345.821 27.982 346.565 28.758 C 347.308 29.543 348.083 30.214 348.886 30.773 C 349.682 31.333 350.455 31.762 351.207 32.062 C 351.966 32.363 352.575 32.513 353.037 32.513 C 353.423 32.513 353.858 32.501 354.342 32.476 C 354.826 32.442 355.32 32.384 355.826 32.3 C 356.324 32.216 356.815 32.091 357.299 31.925 C 357.782 31.758 358.214 31.528 358.594 31.236 C 358.965 30.945 359.266 30.577 359.497 30.135 C 359.721 29.701 359.832 29.175 359.832 28.558 C 359.832 27.916 359.687 27.356 359.397 26.881 C 359.107 26.405 358.728 25.988 358.259 25.629 C 357.79 25.27 357.255 24.969 356.652 24.728 C 356.05 24.486 355.443 24.268 354.833 24.077 C 354.223 23.893 353.635 23.73 353.07 23.589 C 352.497 23.447 352.003 23.313 351.586 23.188 C 350.82 22.938 350.009 22.688 349.154 22.437 C 348.306 22.187 347.461 21.895 346.621 21.561 C 345.787 21.236 344.992 20.848 344.233 20.397 C 343.474 19.947 342.805 19.408 342.225 18.783 C 341.651 18.157 341.194 17.418 340.852 16.567 C 340.51 15.707 340.339 14.706 340.339 13.563 C 340.339 11.469 340.71 9.712 341.455 8.294 C 342.198 6.883 343.18 5.749 344.4 4.889 C 345.612 4.038 346.996 3.437 348.551 3.087 C 350.106 2.728 351.687 2.549 353.294 2.549 C 354.394 2.549 355.554 2.674 356.775 2.924 C 357.994 3.183 359.181 3.559 360.334 4.051 C 361.487 4.551 362.566 5.156 363.57 5.866 C 364.574 6.575 365.407 7.389 366.07 8.306 L 361.138 12.862 C 360.773 11.736 360.293 10.772 359.698 9.971 C 359.102 9.161 358.46 8.498 357.768 7.981 C 357.076 7.471 356.365 7.096 355.637 6.854 C 354.907 6.604 354.234 6.479 353.617 6.479 C 353.015 6.479 352.337 6.508 351.586 6.566 C 350.834 6.625 350.128 6.783 349.466 7.042 C 348.811 7.309 348.253 7.709 347.793 8.244 C 347.331 8.778 347.101 9.512 347.101 10.447 C 347.101 11.122 347.238 11.698 347.514 12.174 C 347.788 12.649 348.153 13.062 348.607 13.413 C 349.06 13.763 349.573 14.055 350.147 14.289 C 350.719 14.523 351.307 14.727 351.91 14.902 C 352.512 15.078 353.099 15.232 353.673 15.366 C 354.237 15.499 354.747 15.641 355.202 15.791 C 355.967 16.033 356.782 16.279 357.645 16.53 C 358.5 16.789 359.348 17.08 360.189 17.406 C 361.022 17.731 361.825 18.115 362.599 18.557 C 363.38 18.999 364.061 19.537 364.641 20.172 C 365.228 20.814 365.697 21.561 366.047 22.412 C 366.397 23.263 366.572 24.268 366.572 25.429 Z M 401.062 31.9 C 401.062 34.487 400.719 36.923 400.035 39.209 C 399.35 41.496 398.357 43.494 397.056 45.205 C 395.746 46.923 394.143 48.284 392.247 49.285 C 390.35 50.286 388.192 50.787 385.775 50.787 C 384.436 50.787 383.086 50.621 381.724 50.286 C 380.363 49.945 379.076 49.423 377.864 48.722 C 376.651 48.021 375.565 47.132 374.606 46.056 C 373.646 44.979 372.891 43.707 372.34 42.238 L 376 40.699 C 376.313 41.616 376.726 42.46 377.239 43.227 C 377.752 43.994 378.339 44.654 379.002 45.205 C 379.671 45.764 380.408 46.197 381.211 46.506 C 382.015 46.816 382.858 46.97 383.744 46.97 C 385.41 46.97 386.808 46.585 387.94 45.818 C 389.07 45.051 389.977 44.044 390.662 42.802 C 391.346 41.566 391.837 40.164 392.135 38.596 C 392.44 37.035 392.592 35.451 392.592 33.84 L 392.592 31.925 C 391.588 33.461 390.379 34.6 388.966 35.342 C 387.552 36.084 386.005 36.456 384.324 36.456 C 382.115 36.456 380.14 36.014 378.399 35.129 C 376.665 34.253 375.197 33.048 373.992 31.512 C 372.787 29.985 371.867 28.191 371.236 26.13 C 370.603 24.068 370.287 21.858 370.287 19.496 C 370.287 17.134 370.603 14.924 371.236 12.862 C 371.867 10.801 372.787 9.007 373.992 7.48 C 375.197 5.953 376.665 4.748 378.399 3.863 C 380.14 2.987 382.115 2.549 384.324 2.549 C 385.44 2.549 386.504 2.736 387.516 3.112 C 388.526 3.487 389.453 4.017 390.294 4.702 C 391.142 5.386 391.885 6.207 392.526 7.167 C 393.173 8.135 393.678 9.211 394.043 10.396 L 397.803 3.337 L 401.062 3.337 L 401.062 31.9 M 392.537 19.496 C 392.537 18.654 392.499 17.765 392.425 16.83 C 392.35 15.895 392.22 14.969 392.035 14.051 C 391.856 13.125 391.603 12.249 391.276 11.423 C 390.948 10.588 390.532 9.846 390.026 9.195 C 389.513 8.553 388.895 8.043 388.174 7.668 C 387.46 7.292 386.626 7.105 385.674 7.105 C 384.722 7.105 383.892 7.296 383.186 7.68 C 382.487 8.065 381.887 8.578 381.39 9.22 C 380.883 9.871 380.47 10.618 380.151 11.46 C 379.823 12.303 379.566 13.184 379.381 14.101 C 379.195 15.019 379.064 15.941 378.991 16.867 C 378.916 17.794 378.879 18.67 378.879 19.496 C 378.879 20.322 378.916 21.202 378.991 22.137 C 379.064 23.079 379.195 24.011 379.381 24.928 C 379.566 25.846 379.823 26.727 380.151 27.569 C 380.47 28.411 380.883 29.155 381.39 29.797 C 381.887 30.448 382.487 30.965 383.186 31.349 C 383.892 31.733 384.722 31.925 385.674 31.925 C 386.545 31.925 387.318 31.725 387.995 31.324 C 388.672 30.915 389.263 30.377 389.77 29.709 C 390.283 29.033 390.713 28.261 391.064 27.394 C 391.413 26.534 391.695 25.645 391.912 24.728 C 392.127 23.81 392.287 22.897 392.392 21.987 C 392.488 21.077 392.537 20.247 392.537 19.496 Z" style="white-space: pre; fill: rgb(4, 67, 106);"/>
  <path d="M 419.321 64.32 L 415.287 65.338 L 406.845 31.887 L 410.878 30.869 L 419.321 64.32 ZM 440.06 55.691 L 436.342 57.558 L 425.438 35.842 L 429.156 33.975 L 440.06 55.691 M 422.249 30.225 C 421.947 29.624 421.873 29.023 422.027 28.423 C 422.19 27.827 422.635 27.346 423.362 26.981 C 424.083 26.619 424.734 26.55 425.316 26.772 C 425.901 27.001 426.344 27.416 426.646 28.018 C 426.948 28.619 427.013 29.217 426.841 29.811 C 426.667 30.398 426.219 30.873 425.498 31.235 C 424.771 31.6 424.123 31.676 423.553 31.462 C 422.986 31.239 422.551 30.827 422.249 30.225 ZM 444.878 24.708 L 446.761 27.111 C 446.913 24.131 448.206 21.769 450.639 20.026 C 454.812 17.035 458.604 17.881 462.017 22.563 L 471.372 35.617 L 467.99 38.04 L 458.624 24.97 C 457.592 23.553 456.511 22.732 455.383 22.507 C 454.254 22.283 453.015 22.654 451.666 23.621 C 450.571 24.405 449.819 25.387 449.409 26.566 C 448.999 27.746 448.904 28.975 449.123 30.253 L 459.212 44.331 L 455.83 46.755 L 441.676 27.003 L 444.878 24.708 ZM 480.042 11.616 L 480.574 15.341 L 487.308 20.593 L 484.755 23.865 L 457.551 2.648 L 460.103 -0.625 L 476.56 12.21 L 475.818 8.804 L 474.173 -2.079 L 477.279 -6.061 L 479.465 7.64 L 497.117 8.016 L 494.122 11.856 L 480.042 11.616 Z" transform="matrix(1, 0, 0, 1, 0, 0)" style="fill: rgb(193, 39, 45); white-space: pre;"/>
  <rect x="179.219" y="38.37" width="36.437" height="3.64" style="fill: rgb(4, 67, 106); fill-opacity: 0.5;"/>
  <rect x="290.493" y="38.37" width="112.115" height="3.64" style="fill: rgb(4, 67, 106); fill-opacity: 0.5;"/>
</svg>