<?xml version="1.0" encoding="UTF-8" standalone="no"?>
<!-- Generator: Adobe Illustrator 16.0.0, SVG Export Plug-In . SVG Version: 6.00 Build 0)  -->

<svg
   xmlns:dc="http://purl.org/dc/elements/1.1/"
   xmlns:cc="http://creativecommons.org/ns#"
   xmlns:rdf="http://www.w3.org/1999/02/22-rdf-syntax-ns#"
   xmlns:svg="http://www.w3.org/2000/svg"
   xmlns="http://www.w3.org/2000/svg"
   xmlns:sodipodi="http://sodipodi.sourceforge.net/DTD/sodipodi-0.dtd"
   xmlns:inkscape="http://www.inkscape.org/namespaces/inkscape"
   version="1.1"
   id="Layer_1"
   x="0px"
   y="0px"
   width="435.721px"
   height="85.242px"
   viewBox="62.402 -18.766 435.721 85.242"
   enable-background="new 62.402 -18.766 435.721 85.242"
   xml:space="preserve"
   inkscape:version="0.91 r13725"
   sodipodi:docname="logo-dark.svg"><metadata
     id="metadata53"><rdf:RDF><cc:Work
         rdf:about=""><dc:format>image/svg+xml</dc:format><dc:type
           rdf:resource="http://purl.org/dc/dcmitype/StillImage" /></cc:Work></rdf:RDF></metadata><defs
     id="defs51" /><sodipodi:namedview
     pagecolor="#ffffff"
     bordercolor="#666666"
     borderopacity="1"
     objecttolerance="10"
     gridtolerance="10"
     guidetolerance="10"
     inkscape:pageopacity="0"
     inkscape:pageshadow="2"
     inkscape:window-width="1019"
     inkscape:window-height="619"
     id="namedview49"
     showgrid="false"
     inkscape:zoom="2.515371"
     inkscape:cx="369.71095"
     inkscape:cy="42.620998"
     inkscape:window-x="0"
     inkscape:window-y="0"
     inkscape:window-maximized="0"
     inkscape:current-layer="text3617" /><g
     id="g3"><path
       fill="#04436A"
       d="M205.456,22.207c0,4.297-1.603,7.119-4.681,8.465l4.425,16.803c0.192,0.771-0.192,1.154-0.898,1.154h-6.67   c-0.641,0-0.961-0.32-1.09-0.898l-4.297-16.289h-4.425v16.162c0,0.642-0.384,1.025-1.026,1.025h-6.67   c-0.641,0-1.026-0.385-1.026-1.025V-1.651c0-0.641,0.385-1.026,1.026-1.026h16.097c6.028,0,9.235,3.207,9.235,9.235V22.207   L205.456,22.207z M194.169,22.976c1.667,0,2.565-0.898,2.565-2.565V8.354c0-1.667-0.898-2.564-2.565-2.564h-6.349v17.187   L194.169,22.976L194.169,22.976z"
       id="path5" /><path
       fill="#04436A"
       d="M210.583,6.558c0-6.028,3.206-9.235,9.235-9.235h7.183c6.028,0,9.235,3.207,9.235,9.235v32.836   c0,6.027-3.207,9.234-9.235,9.234h-7.183c-6.029,0-9.235-3.207-9.235-9.234V6.558z M225.397,40.355   c1.667,0,2.565-0.834,2.565-2.565V8.162c0-1.667-0.898-2.565-2.565-2.565h-3.719c-1.667,0-2.565,0.898-2.565,2.565v29.629   c0,1.73,0.898,2.564,2.565,2.564H225.397L225.397,40.355z"
       id="path7" /><path
       fill="#04436A"
       d="M268.362,13.484c0,0.642-0.385,1.026-1.025,1.026h-6.413c-0.706,0-1.026-0.384-1.026-1.026v-5.13   c0-1.667-0.897-2.564-2.564-2.564h-3.335c-1.731,0-2.565,0.897-2.565,2.564V37.6c0,1.731,0.897,2.563,2.565,2.563h3.335   c1.667,0,2.564-0.833,2.564-2.563v-5.132c0-0.642,0.32-1.026,1.026-1.026h6.413c0.643,0,1.025,0.384,1.025,1.026v6.927   c0,6.027-3.271,9.234-9.234,9.234h-7.183c-6.028,0-9.299-3.207-9.299-9.234V6.558c0-6.028,3.271-9.235,9.299-9.235h7.183   c5.964,0,9.234,3.207,9.234,9.235V13.484z"
       id="path9" /><path
       fill="#04436A"
       d="M295.422,48.629c-0.771,0-1.218-0.32-1.476-0.961l-8.079-19.048l-2.374,4.554v14.172   c0,0.834-0.448,1.283-1.282,1.283h-6.157c-0.834,0-1.283-0.449-1.283-1.283v-48.74c0-0.833,0.449-1.283,1.283-1.283h6.157   c0.833,0,1.282,0.449,1.282,1.283v19.881l9.876-20.202c0.321-0.641,0.771-0.962,1.476-0.962h6.733c0.962,0,1.347,0.642,0.897,1.539   l-10.901,22.382l11.606,25.91c0.449,0.834,0.064,1.475-0.961,1.475H295.422z"
       id="path11" /><path
       fill="#04436A"
       d="M333.45,4.763c0,0.641-0.257,1.09-1.026,1.09h-16.033v12.826h12.249c0.643,0,1.026,0.385,1.026,1.09v6.349   c0,0.706-0.385,1.091-1.026,1.091h-12.249v12.954h16.033c0.771,0,1.026,0.321,1.026,1.026v6.414c0,0.641-0.257,1.024-1.026,1.024   h-23.6c-0.578,0-0.963-0.385-0.963-1.024V-1.651c0-0.641,0.385-1.026,0.963-1.026h23.6c0.771,0,1.026,0.385,1.026,1.026V4.763z"
       id="path13" /><path
       fill="#04436A"
       d="M363.204-2.677c0.705,0,1.026,0.385,1.026,1.026v6.414c0,0.641-0.321,1.026-1.026,1.026h-7.439v41.814   c0,0.705-0.32,1.024-1.025,1.024h-6.67c-0.643,0-1.026-0.319-1.026-1.024V5.789h-7.438c-0.643,0-1.026-0.385-1.026-1.026v-6.414   c0-0.641,0.385-1.026,1.026-1.026H363.204z"
       id="path15" /><g
       transform="matrix(0.95702354,-0.29908507,0.30103371,0.95082856,0,0)"
       style="font-style:normal;font-weight:normal;font-size:62.37500763px;line-height:125%;font-family:Sans;letter-spacing:0px;word-spacing:0px;opacity:0.75;fill:#c1272d;fill-opacity:1;stroke:none;stroke-width:1px;stroke-linecap:butt;stroke-linejoin:miter;stroke-opacity:1"
       id="text3617"><path
         d="m 310.52765,126.92886 0,8.28418 q -3.5025,-1.46191 -6.76135,-2.19287 -3.25885,-0.73096 -6.15222,-0.73096 -3.10657,0 -4.6294,0.79187 -1.49237,0.76142 -1.49237,2.37561 0,1.30963 1.12689,2.01013 1.15735,0.70051 4.11164,1.03553 l 1.91876,0.27411 q 8.37555,1.06598 11.26892,3.5025 2.89337,2.43652 2.89337,7.64459 0,5.45172 -4.02026,8.19281 -4.02026,2.74109 -11.99988,2.74109 -3.38068,0 -7.00501,-0.54822 -3.59387,-0.51776 -7.40094,-1.58374 l 0,-8.28418 q 3.25885,1.58374 6.66999,2.37561 3.44159,0.79187 6.97455,0.79187 3.19793,0 4.81213,-0.88324 1.6142,-0.88324 1.6142,-2.61926 0,-1.46191 -1.12689,-2.16241 -1.09644,-0.73096 -4.4162,-1.1269 l -1.91877,-0.24365 q -7.27911,-0.91369 -10.20294,-3.38067 -2.92383,-2.46698 -2.92383,-7.49232 0,-5.42126 3.7157,-8.04052 3.7157,-2.61927 11.39075,-2.61927 3.0152,0 6.33496,0.45685 3.31976,0.45685 7.2182,1.43146 z"
         style="font-style:normal;font-variant:normal;font-weight:bold;font-stretch:normal;font-size:62.37500763px;font-family:Sans;-inkscape-font-specification:'Sans Bold';fill:#c1272d;fill-opacity:1"
         id="path3353" /><path
         d="m 355.20741,139.20285 0,20.77136 -10.96436,0 0,-3.38067 0,-12.45673 q 0,-4.47711 -0.2132,-6.15222 -0.18274,-1.67511 -0.67004,-2.46698 -0.63959,-1.06598 -1.73602,-1.64466 -1.09644,-0.60913 -2.49744,-0.60913 -3.41113,0 -5.36035,2.64972 -1.94922,2.61926 -1.94922,7.27912 l 0,16.78155 -10.90345,0 0,-47.39038 10.90345,0 0,18.27392 q 2.46698,-2.98474 5.23852,-4.38574 2.77155,-1.43146 6.12177,-1.43146 5.90857,0 8.95422,3.62433 3.07612,3.62433 3.07612,10.53797 z"
         style="font-style:normal;font-variant:normal;font-weight:bold;font-stretch:normal;font-size:62.37500763px;font-family:Sans;-inkscape-font-specification:'Sans Bold';fill:#c1272d;fill-opacity:1"
         id="path3355" /><path
         d="m 380.66908,144.62411 q -3.41114,0 -5.14716,1.15735 -1.70557,1.15735 -1.70557,3.41114 0,2.07104 1.37055,3.25885 1.401,1.15734 3.86798,1.15734 3.07611,0 5.17761,-2.19287 2.10151,-2.22332 2.10151,-5.54309 l 0,-1.24872 -5.66492,0 z m 16.65973,-4.11163 0,19.46173 -10.99481,0 0,-5.05578 q -2.19288,3.10656 -4.93397,4.53802 -2.74108,1.401 -6.66998,1.401 -5.29944,0 -8.6192,-3.07611 -3.28931,-3.10657 -3.28931,-8.04053 0,-5.99994 4.11163,-8.80194 4.1421,-2.802 12.97449,-2.802 l 6.42634,0 0,-0.85278 q 0,-2.58881 -2.04059,-3.77662 -2.04059,-1.21826 -6.36542,-1.21826 -3.5025,0 -6.5177,0.7005 -3.0152,0.7005 -5.60401,2.1015 l 0,-8.31463 q 3.50251,-0.85279 7.03547,-1.27918 3.53295,-0.45685 7.06591,-0.45685 9.22834,0 13.30951,3.65479 4.11164,3.62433 4.11164,11.81714 z"
         style="font-style:normal;font-variant:normal;font-weight:bold;font-stretch:normal;font-size:62.37500763px;font-family:Sans;-inkscape-font-specification:'Sans Bold';fill:#c1272d;fill-opacity:1"
         id="path3357" /><path
         d="m 432.74977,135.15213 q -1.43145,-0.67005 -2.86291,-0.97461 -1.401,-0.33502 -2.83246,-0.33502 -4.203,0 -6.48724,2.71063 -2.25379,2.68017 -2.25379,7.7055 l 0,15.71558 -10.90344,0 0,-34.11133 10.90344,0 0,5.604 q 2.1015,-3.35022 4.81214,-4.87304 2.74109,-1.55329 6.54815,-1.55329 0.54822,0 1.18781,0.0609 0.63959,0.0304 1.85785,0.18274 l 0.0305,9.86792 z"
         style="font-style:normal;font-variant:normal;font-weight:bold;font-stretch:normal;font-size:62.37500763px;font-family:Sans;-inkscape-font-specification:'Sans Bold';fill:#c1272d;fill-opacity:1"
         id="path3359" /><path
         d="m 472.28237,142.82718 0,3.10656 -25.49213,0 q 0.39593,3.83753 2.77154,5.75629 2.37562,1.91876 6.63953,1.91876 3.44159,0 7.03546,-1.00506 3.62433,-1.03552 7.4314,-3.10657 l 0,8.40601 q -3.86798,1.46191 -7.73596,2.19287 -3.86798,0.76141 -7.73596,0.76141 -9.25879,0 -14.40595,-4.69031 -5.1167,-4.72076 -5.1167,-13.21814 0,-8.34509 5.02533,-13.12677 5.05579,-4.78168 13.88819,-4.78168 8.04052,0 12.85266,4.84259 4.84259,4.8426 4.84259,12.94404 z m -11.20801,-3.62433 q 0,-3.10657 -1.82739,-4.99488 -1.79694,-1.91876 -4.72077,-1.91876 -3.16748,0 -5.14715,1.79694 -1.97968,1.76648 -2.46698,5.1167 l 14.16229,0 z"
         style="font-style:normal;font-variant:normal;font-weight:bold;font-stretch:normal;font-size:62.37500763px;font-family:Sans;-inkscape-font-specification:'Sans Bold';fill:#c1272d;fill-opacity:1"
         id="path3361" /></g></g><path
     fill="#C1272D"
     d="M162.586,23.788c0-5.031-1.505-9.854-4.474-14.339c-2.666-4.025-6.401-7.588-11.1-10.591  c-9.074-5.796-21-8.989-33.579-8.989c-4.202,0-8.344,0.355-12.361,1.059c-2.492-2.333-5.41-4.432-8.497-6.091  c-16.494-7.994-30.172-0.188-30.172-0.188S75.12-4.904,73.052,4.253c-5.689,5.644-8.773,12.45-8.773,19.535  c0,0.022,0.001,0.045,0.001,0.068c0,0.022-0.001,0.044-0.001,0.068c0,7.085,3.083,13.891,8.773,19.534  c2.068,9.158-10.649,19.605-10.649,19.605s13.678,7.805,30.172-0.188c3.087-1.659,6.004-3.759,8.497-6.091  c4.018,0.703,8.159,1.058,12.361,1.058c12.58,0,24.505-3.191,33.579-8.987c4.699-3.003,8.434-6.565,11.1-10.592  c2.969-4.484,4.474-9.309,4.474-14.338c0-0.023-0.001-0.045-0.001-0.068S162.586,23.81,162.586,23.788z"
     id="path27" /><path
     fill="#FFFFFF"
     d="M113.433-3.018c23.293,0,42.177,12.062,42.177,26.941c0,14.878-18.884,26.941-42.177,26.941  c-5.187,0-10.154-0.6-14.743-1.693c-4.664,5.61-14.924,13.411-24.891,10.89c3.242-3.482,8.045-9.366,7.017-19.058  c-5.974-4.648-9.56-10.597-9.56-17.08C71.255,9.043,90.139-3.018,113.433-3.018"
     id="path29" /><g
     id="g31"><g
       id="g33"><circle
         fill="#C1272D"
         cx="113.433"
         cy="24.79"
         r="5.603"
         id="circle35" /></g><g
       id="g37"><circle
         fill="#C1272D"
         cx="132.913"
         cy="24.79"
         r="5.603"
         id="circle39" /></g><g
       id="g41"><circle
         fill="#C1272D"
         cx="93.952"
         cy="24.79"
         r="5.602"
         id="circle43" /></g></g><g
     id="g45"><path
       fill="#CCCCCC"
       d="M113.433,47.319c-5.187,0-10.154-0.52-14.743-1.468c-4.118,4.294-12.6,10.066-21.39,9.854   c-1.158,1.755-2.417,3.19-3.501,4.355c9.967,2.521,20.227-5.279,24.891-10.89c4.589,1.094,9.557,1.693,14.743,1.693   c23.106,0,41.87-11.871,42.169-26.585C155.303,37.032,136.539,47.319,113.433,47.319z"
       id="path47" /></g></svg>